<?xml version="1.0" encoding="UTF-8" standalone="no"?>
<!-- Created with Inkscape (http://www.inkscape.org/) -->

<svg
   xmlns:dc="http://purl.org/dc/elements/1.1/"
   xmlns:cc="http://creativecommons.org/ns#"
   xmlns:rdf="http://www.w3.org/1999/02/22-rdf-syntax-ns#"
   xmlns:svg="http://www.w3.org/2000/svg"
   xmlns="http://www.w3.org/2000/svg"
   xmlns:sodipodi="http://sodipodi.sourceforge.net/DTD/sodipodi-0.dtd"
   xmlns:inkscape="http://www.inkscape.org/namespaces/inkscape"
   width="212.43117"
   height="158.95378"
   id="svg2"
   version="1.1"
   inkscape:version="0.48.4 r9939"
   sodipodi:docname="logo.svg"
   inkscape:export-filename="/home/nekmo/Projects/nekumo/nekumo/static/nekumo/img/logo.png"
   inkscape:export-xdpi="33.91003"
   inkscape:export-ydpi="33.91003">
  <defs
     id="defs4" />
  <sodipodi:namedview
     id="base"
     pagecolor="#ffffff"
     bordercolor="#666666"
     borderopacity="1.0"
     inkscape:pageopacity="0.0"
     inkscape:pageshadow="2"
     inkscape:zoom="9.2761854"
     inkscape:cx="7.4160709"
     inkscape:cy="122.57991"
     inkscape:document-units="px"
     inkscape:current-layer="layer1"
     showgrid="false"
     inkscape:window-width="1920"
     inkscape:window-height="1025"
     inkscape:window-x="-2"
     inkscape:window-y="-3"
     inkscape:window-maximized="1"
     showguides="true"
     inkscape:guide-bbox="true"
     inkscape:snap-page="true"
     fit-margin-top="0"
     fit-margin-left="0"
     fit-margin-right="0"
     fit-margin-bottom="0">
    <sodipodi:guide
       orientation="0,1"
       position="-11.068518,184.1937"
       id="guide2986" />
  </sodipodi:namedview>
  <metadata
     id="metadata7">
    <rdf:RDF>
      <cc:Work
         rdf:about="">
        <dc:format>image/svg+xml</dc:format>
        <dc:type
           rdf:resource="http://purl.org/dc/dcmitype/StillImage" />
        <dc:title />
      </cc:Work>
    </rdf:RDF>
  </metadata>
  <g
     inkscape:label="Capa 1"
     inkscape:groupmode="layer"
     id="layer1"
     transform="translate(-230.00537,-447.45693)">
    <path
       style="fill:#fdffff;fill-opacity:1;stroke:#23bcd6;stroke-width:12.89999962;stroke-linecap:butt;stroke-linejoin:miter;stroke-miterlimit:4;stroke-opacity:1;stroke-dasharray:none"
       d="m 319.98461,590.63001 c 33.94769,18.93565 83.00059,7.91648 90.1711,-22.80592 31.79832,-14.32432 43.24878,-88.75347 -18.94646,-97.53917 -17.006,-14.91296 -29.08441,-24.96441 -67.71604,-5.61377 -52.81648,-34.42595 -70.70428,24.03747 -71.22464,31.92829 -26.31141,24.16934 -17.30032,64.39944 8.77151,74.38239 11.88894,32.41351 36.29504,23.10317 58.94453,19.64818 z"
       id="path3002"
       inkscape:connector-curvature="0"
       sodipodi:nodetypes="ccccccc"
       inkscape:export-xdpi="33.91003"
       inkscape:export-ydpi="33.91003" />
    <path
       sodipodi:type="arc"
       style="opacity:0;fill:#23bcd6;fill-opacity:1;stroke:#2773b3;stroke-width:1.89999998;stroke-linecap:round;stroke-linejoin:round;stroke-miterlimit:4;stroke-opacity:1;stroke-dasharray:none"
       id="path3772"
       sodipodi:cx="298.58212"
       sodipodi:cy="512.21271"
       sodipodi:rx="4.9120445"
       sodipodi:ry="10.70124"
       d="m 303.49417,512.21271 a 4.9120445,10.70124 0 1 1 -9.82409,0 4.9120445,10.70124 0 1 1 9.82409,0 z"
       transform="matrix(1.4090869,0,0,1.4345346,-125.43531,-220.835)" />
    <path
       sodipodi:type="arc"
       style="fill:#23bcd6;fill-opacity:1;stroke:none"
       id="path3774"
       sodipodi:cx="300.51187"
       sodipodi:cy="516.77393"
       sodipodi:rx="8.9469385"
       sodipodi:ry="16.665865"
       d="m 309.45881,516.77393 a 8.9469385,16.665865 0 1 1 -17.89388,0 8.9469385,16.665865 0 1 1 17.89388,0 z"
       transform="matrix(0.91176213,0,0,1.0721259,19.07275,-39.591468)" />
    <path
       sodipodi:type="arc"
       style="fill:#23bcd6;fill-opacity:1;stroke:none"
       id="path3774-1"
       sodipodi:cx="300.51187"
       sodipodi:cy="516.77393"
       sodipodi:rx="8.9469385"
       sodipodi:ry="16.665865"
       d="m 309.45881,516.77393 a 8.9469385,16.665865 0 1 1 -17.89388,0 8.9469385,16.665865 0 1 1 17.89388,0 z"
       transform="matrix(0.91176213,0,0,1.0721259,53.433038,-39.339822)" />
  </g>
</svg>
